<?xml version="1.0" standalone="no"?>
<!DOCTYPE svg PUBLIC "-//W3C//DTD SVG 20010904//EN"
 "http://www.w3.org/TR/2001/REC-SVG-20010904/DTD/svg10.dtd">
<svg version="1.0" xmlns="http://www.w3.org/2000/svg"
 width="922.000000pt" height="168.000000pt" viewBox="0 0 922.000000 168.000000"
 preserveAspectRatio="xMidYMid meet">

<g transform="translate(0.000000,168.000000) scale(0.100000,-0.100000)"
fill="#000000" stroke="none">
<path d="M840 1409 c-76 -15 -182 -74 -243 -135 -273 -275 -148 -721 230 -819
31 -8 70 -15 86 -15 27 0 28 1 25 48 -3 44 -5 47 -33 50 -165 14 -300 130
-345 294 -19 73 -10 192 22 260 52 113 185 210 307 225 l51 6 0 48 c0 47 -1
49 -27 48 -16 -1 -48 -5 -73 -10z"/>
<path d="M860 1211 c-120 -37 -210 -157 -210 -283 0 -70 16 -118 59 -174 42
-56 142 -114 197 -114 l34 0 0 145 0 145 150 0 151 0 -7 38 c-19 109 -88 193
-190 232 -55 20 -137 25 -184 11z"/>
<path d="M1720 1191 c-15 -29 -13 -39 15 -57 24 -16 27 -16 45 1 23 20 26 45
8 63 -18 18 -56 14 -68 -7z"/>
<path d="M3492 1198 c-19 -19 -14 -46 13 -64 24 -16 27 -16 45 1 24 22 25 38
4 59 -18 19 -45 21 -62 4z"/>
<path d="M8780 1095 c0 -63 -4 -115 -9 -115 -5 0 -15 7 -22 17 -24 29 -100 56
-156 55 -153 -1 -259 -183 -187 -323 19 -38 86 -95 129 -109 97 -32 216 13
265 100 24 44 25 52 28 268 l3 222 -25 0 -26 0 0 -115z m-119 -96 c144 -48
158 -254 23 -319 -119 -58 -244 23 -244 157 0 115 113 198 221 162z"/>
<path d="M2370 955 c0 -272 3 -289 63 -325 52 -32 138 -23 124 13 -4 11 -22
17 -54 19 -68 4 -83 36 -83 181 l0 107 50 0 c47 0 50 2 50 25 0 23 -3 25 -50
25 l-50 0 0 100 0 100 -25 0 -25 0 0 -245z"/>
<path d="M3170 905 l0 -295 30 0 30 0 0 295 0 295 -30 0 -30 0 0 -295z"/>
<path d="M3330 905 l0 -295 30 0 30 0 0 295 0 295 -30 0 -30 0 0 -295z"/>
<path d="M2810 1050 c-121 -22 -196 -144 -168 -274 13 -61 72 -128 133 -152
96 -36 217 0 265 79 20 32 20 32 -1 41 -17 8 -25 4 -45 -21 -30 -38 -90 -63
-154 -63 -41 0 -55 5 -86 32 -38 33 -64 82 -64 118 0 19 6 20 193 20 l194 0
-7 46 c-18 115 -140 197 -260 174z m133 -67 c30 -15 67 -67 67 -95 0 -16 -14
-18 -155 -18 -145 0 -155 1 -155 19 0 19 32 66 60 88 39 31 127 34 183 6z"/>
<path d="M3807 1046 c-94 -25 -156 -110 -157 -214 0 -69 18 -110 69 -154 45
-39 98 -58 157 -58 43 0 112 28 133 53 7 10 18 17 24 17 15 0 1 -98 -18 -127
-34 -51 -151 -79 -222 -52 -15 5 -42 24 -59 40 -22 22 -39 30 -58 27 l-27 -3
32 -38 c49 -60 101 -82 189 -81 56 0 85 5 115 21 88 46 104 89 105 281 0 184
-15 220 -115 269 -55 28 -111 34 -168 19z m169 -74 c34 -24 64 -91 64 -141 0
-100 -80 -168 -186 -159 -87 7 -143 61 -151 145 -6 62 14 112 59 146 61 47
156 51 214 9z"/>
<path d="M4361 1049 c-137 -26 -212 -210 -136 -334 80 -130 279 -142 366 -22
l30 41 -23 12 c-20 11 -25 9 -43 -17 -45 -65 -164 -90 -231 -49 -34 22 -74 90
-74 128 0 22 1 22 190 22 l190 0 0 30 c0 64 -49 135 -115 168 -50 25 -97 31
-154 21z m154 -75 c22 -14 55 -70 55 -93 0 -12 -301 -16 -313 -5 -10 10 34 82
60 99 53 35 144 35 198 -1z"/>
<path d="M5401 1049 c-163 -32 -240 -230 -139 -354 86 -104 271 -114 358 -21
24 27 24 28 6 41 -16 12 -23 10 -58 -18 -32 -26 -50 -32 -102 -35 -47 -3 -73
1 -101 13 -83 40 -123 172 -73 245 65 95 207 116 288 40 25 -23 31 -25 52 -14
l23 12 -36 34 c-52 49 -142 72 -218 57z"/>
<path d="M5895 1045 c-122 -32 -191 -194 -134 -311 68 -142 263 -168 367 -50
37 43 39 52 12 61 -15 5 -27 -2 -47 -26 -34 -40 -79 -59 -141 -59 -79 0 -139
53 -157 138 l-7 32 196 0 c218 0 207 -4 186 71 -30 107 -159 175 -275 144z
m149 -64 c32 -18 61 -54 71 -88 l6 -23 -160 0 c-176 0 -176 0 -141 57 45 75
144 99 224 54z"/>
<path d="M6564 1048 c-42 -11 -72 -46 -79 -94 -6 -34 -3 -45 21 -73 15 -18 52
-46 82 -63 79 -45 98 -99 48 -140 -28 -23 -74 -22 -113 1 -30 19 -32 19 -47 2
-19 -21 -11 -32 47 -56 89 -37 169 -1 191 87 11 45 -17 94 -71 127 -71 44
-113 81 -113 101 0 34 12 49 46 60 30 10 39 9 71 -10 33 -19 37 -20 52 -5 15
15 14 18 -9 35 -34 26 -89 38 -126 28z"/>
<path d="M7505 1045 c-38 -10 -60 -24 -91 -58 -129 -143 -52 -357 135 -374 78
-7 137 14 185 68 41 45 44 55 16 64 -15 5 -27 -2 -47 -26 -34 -40 -79 -59
-141 -59 -79 0 -140 54 -156 138 l-5 32 194 0 c218 0 206 -5 184 73 -29 106
-159 173 -274 142z m149 -64 c32 -18 61 -54 71 -88 l6 -23 -161 0 -161 0 6 23
c30 98 145 141 239 88z"/>
<path d="M2048 1039 c-57 -9 -101 -40 -125 -88 -14 -29 -19 -68 -21 -188 l-4
-153 25 0 24 0 5 149 c4 113 9 156 21 174 32 49 130 73 187 44 48 -24 60 -68
60 -224 l0 -143 26 0 26 0 -4 168 c-3 188 -10 208 -77 241 -48 24 -86 29 -143
20z"/>
<path d="M4888 1039 c-56 -9 -100 -40 -125 -89 -14 -28 -18 -65 -21 -187 l-4
-153 25 0 24 0 5 148 c3 83 11 158 17 170 27 50 134 78 191 49 48 -24 60 -68
60 -224 l0 -143 26 0 25 0 -3 168 c-3 154 -5 169 -25 198 -38 53 -111 77 -195
63z"/>
<path d="M6930 1030 c-50 -26 -87 -68 -105 -119 -12 -34 -15 -90 -15 -252 l0
-209 25 0 25 0 0 115 c0 63 2 115 5 115 2 0 25 -14 50 -32 60 -42 151 -51 211
-20 50 26 89 67 109 116 18 44 22 128 6 167 -15 42 -72 100 -116 120 -53 25
-148 24 -195 -1z m191 -53 c67 -44 97 -150 63 -222 -34 -72 -117 -111 -199
-93 -150 34 -171 261 -30 324 49 22 127 18 166 -9z"/>
<path d="M8048 1039 c-61 -10 -106 -42 -128 -93 -20 -46 -25 -94 -22 -238 2
-96 2 -98 26 -98 l24 0 3 154 c4 147 5 156 28 180 13 14 40 31 59 37 44 14
117 6 142 -16 27 -25 40 -99 40 -235 l0 -120 25 0 25 0 0 138 c-1 156 -9 204
-42 239 -45 48 -102 65 -180 52z"/>
<path d="M1730 825 l0 -215 25 0 25 0 0 215 0 215 -25 0 -25 0 0 -215z"/>
<path d="M3500 825 l0 -215 25 0 25 0 0 215 0 215 -25 0 -25 0 0 -215z"/>
<path d="M250 900 c0 -59 32 -186 64 -255 95 -202 275 -343 500 -390 41 -8 87
-15 101 -15 23 0 25 3 25 50 l0 50 -38 0 c-61 0 -189 37 -251 72 -93 53 -191
159 -239 258 -41 86 -62 163 -62 225 l0 35 -50 0 c-49 0 -50 -1 -50 -30z"/>
</g>
</svg>
